<svg width="128" height="128" viewBox="0 0 128 128" xmlns="http://www.w3.org/2000/svg">
  <defs>
    <!-- Professional gradient -->
    <linearGradient id="mainBg" x1="0%" y1="0%" x2="100%" y2="100%">
      <stop offset="0%" style="stop-color:#4338ca;stop-opacity:1" />
      <stop offset="100%" style="stop-color:#1e40af;stop-opacity:1" />
    </linearGradient>
    
    <!-- Conversion highlight -->
    <linearGradient id="highlight" x1="0%" y1="0%" x2="100%" y2="100%">
      <stop offset="0%" style="stop-color:#fcd34d;stop-opacity:1" />
      <stop offset="100%" style="stop-color:#f59e0b;stop-opacity:1" />
    </linearGradient>
  </defs>
  
  <!-- Clean rounded square background -->
  <rect width="128" height="128" rx="20" fill="url(#mainBg)"/>
  
  <g transform="translate(64,64)">
    
    <!-- Left text block (source) - moved further left and made larger -->
    <g transform="translate(-42, -14)">
      <!-- Document shape -->
      <rect x="0" y="0" width="26" height="22" rx="3" fill="white" opacity="0.95"/>
      <!-- Text lines -->
      <rect x="4" y="4" width="14" height="2" rx="0.5" fill="#374151" opacity="0.6"/>
      <rect x="4" y="8" width="18" height="2" rx="0.5" fill="#374151" opacity="0.6"/>
      <rect x="4" y="12" width="12" height="2" rx="0.5" fill="#374151" opacity="0.6"/>
      <rect x="4" y="16" width="16" height="2" rx="0.5" fill="#374151" opacity="0.6"/>
    </g>
    
    <!-- Central conversion symbol - smaller and centered -->
    <g transform="translate(0, -2)">
      <!-- Circular conversion background -->
      <circle r="11" fill="url(#highlight)" opacity="0.9"/>
      
      <!-- Conversion arrows -->
      <g stroke="white" stroke-width="2" fill="none" stroke-linecap="round">
        <path d="M -5 -3 L 5 -3 M 2 -5 L 5 -3 L 2 -1"/>
        <path d="M 5 3 L -5 3 M -2 1 L -5 3 L -2 5"/>
      </g>
    </g>
    
    <!-- Right text block (target) - moved further right and made larger -->
    <g transform="translate(16, -14)">
      <!-- Document shape -->
      <rect x="0" y="0" width="26" height="22" rx="3" fill="white" opacity="0.95"/>
      <!-- Text lines (different pattern to show translation) -->
      <rect x="4" y="4" width="16" height="2" rx="0.5" fill="#374151" opacity="0.6"/>
      <rect x="4" y="8" width="12" height="2" rx="0.5" fill="#374151" opacity="0.6"/>
      <rect x="4" y="12" width="18" height="2" rx="0.5" fill="#374151" opacity="0.6"/>
      <rect x="4" y="16" width="14" height="2" rx="0.5" fill="#374151" opacity="0.6"/>
    </g>
    
    <!-- Web/global indicator - moved down more -->
    <g transform="translate(0, 28)">
      <circle r="9" stroke="white" stroke-width="1.8" fill="none" opacity="0.75"/>
      <path d="M -6.5 0 Q 0 -4.5 6.5 0" stroke="white" stroke-width="1.5" fill="none" opacity="0.75"/>
      <path d="M -6.5 0 Q 0 4.5 6.5 0" stroke="white" stroke-width="1.5" fill="none" opacity="0.75"/>
      <line x1="0" y1="-9" x2="0" y2="9" stroke="white" stroke-width="1.5" opacity="0.75"/>
    </g>
    
  </g>
  
  <!-- Subtle top highlight for depth -->
  <rect width="128" height="40" rx="20" fill="white" opacity="0.05"/>
</svg>