<svg width="128" height="128" viewBox="0 0 128 128" xmlns="http://www.w3.org/2000/svg">
  <defs>
    <!-- Modern gradient -->
    <linearGradient id="mainGrad" x1="0%" y1="0%" x2="100%" y2="100%">
      <stop offset="0%" style="stop-color:#4f46e5;stop-opacity:1" />
      <stop offset="50%" style="stop-color:#7c3aed;stop-opacity:1" />
      <stop offset="100%" style="stop-color:#db2777;stop-opacity:1" />
    </linearGradient>
    
    <!-- Light gradient for text -->
    <linearGradient id="textGrad" x1="0%" y1="0%" x2="100%" y2="100%">
      <stop offset="0%" style="stop-color:#ffffff;stop-opacity:1" />
      <stop offset="100%" style="stop-color:#e2e8f0;stop-opacity:1" />
    </linearGradient>
    
    <!-- Shadow filter -->
    <filter id="shadow" x="-20%" y="-20%" width="140%" height="140%">
      <dropShadow dx="0" dy="2" stdDeviation="4" flood-color="rgba(0,0,0,0.1)"/>
    </filter>
  </defs>
  
  <!-- Background with rounded corners -->
  <rect x="8" y="8" width="112" height="112" rx="20" ry="20" fill="url(#mainGrad)" filter="url(#shadow)"/>
  
  <!-- Translation concept -->
  <g transform="translate(64,64)">
    
    <!-- Left language block (representing source) -->
    <rect x="-32" y="-18" width="24" height="12" rx="3" fill="url(#textGrad)" opacity="0.9"/>
    <rect x="-30" y="-14" width="20" height="2" rx="1" fill="#1e293b" opacity="0.3"/>
    <rect x="-30" y="-10" width="14" height="2" rx="1" fill="#1e293b" opacity="0.3"/>
    
    <!-- Transformation arrow with curves (showing conversion) -->
    <path d="M -4 -8 Q 0 -12 4 -8" stroke="url(#textGrad)" stroke-width="2.5" fill="none" stroke-linecap="round"/>
    <path d="M -4 8 Q 0 12 4 8" stroke="url(#textGrad)" stroke-width="2.5" fill="none" stroke-linecap="round"/>
    
    <!-- Central conversion symbol -->
    <circle cx="0" cy="0" r="8" fill="url(#textGrad)" opacity="0.2"/>
    <path d="M -3 -3 L 3 3 M -3 3 L 3 -3" stroke="url(#textGrad)" stroke-width="2" stroke-linecap="round"/>
    
    <!-- Arrow pointing right -->
    <path d="M 8 0 L 18 0 M 14 -4 L 18 0 L 14 4" stroke="url(#textGrad)" stroke-width="2.5" fill="none" stroke-linecap="round"/>
    
    <!-- Right language block (representing target) -->
    <rect x="22" y="-18" width="24" height="12" rx="3" fill="url(#textGrad)" opacity="0.9"/>
    <rect x="24" y="-14" width="20" height="2" rx="1" fill="#1e293b" opacity="0.3"/>
    <rect x="24" y="-10" width="16" height="2" rx="1" fill="#1e293b" opacity="0.3"/>
    
    <!-- Global/web indicator -->
    <g transform="translate(0, 22)">
      <circle cx="0" cy="0" r="12" stroke="url(#textGrad)" stroke-width="2" fill="none" opacity="0.6"/>
      <path d="M -12 0 Q 0 -6 12 0" stroke="url(#textGrad)" stroke-width="1.5" fill="none" opacity="0.6"/>
      <path d="M -12 0 Q 0 6 12 0" stroke="url(#textGrad)" stroke-width="1.5" fill="none" opacity="0.6"/>
      <line x1="0" y1="-12" x2="0" y2="12" stroke="url(#textGrad)" stroke-width="1.5" opacity="0.6"/>
      
      <!-- Small dots representing languages -->
      <circle cx="-6" cy="-6" r="1.5" fill="url(#textGrad)" opacity="0.8"/>
      <circle cx="6" cy="-6" r="1.5" fill="url(#textGrad)" opacity="0.8"/>
      <circle cx="-6" cy="6" r="1.5" fill="url(#textGrad)" opacity="0.8"/>
      <circle cx="6" cy="6" r="1.5" fill="url(#textGrad)" opacity="0.8"/>
    </g>
  </g>
  
  <!-- Subtle shine effect -->
  <rect x="8" y="8" width="112" height="112" rx="20" ry="20" fill="url(#shine)" opacity="0.1"/>
  <defs>
    <linearGradient id="shine" x1="0%" y1="0%" x2="100%" y2="100%">
      <stop offset="0%" style="stop-color:#ffffff;stop-opacity:0.4" />
      <stop offset="100%" style="stop-color:#ffffff;stop-opacity:0" />
    </linearGradient>
  </defs>
</svg>